<?xml version="1.0" encoding="UTF-8" standalone="no"?>
<!-- Created with Inkscape (http://www.inkscape.org/) -->

<svg
   xmlns:dc="http://purl.org/dc/elements/1.1/"
   xmlns:cc="http://creativecommons.org/ns#"
   xmlns:rdf="http://www.w3.org/1999/02/22-rdf-syntax-ns#"
   xmlns:svg="http://www.w3.org/2000/svg"
   xmlns="http://www.w3.org/2000/svg"
   xmlns:xlink="http://www.w3.org/1999/xlink"
   xmlns:sodipodi="http://sodipodi.sourceforge.net/DTD/sodipodi-0.dtd"
   xmlns:inkscape="http://www.inkscape.org/namespaces/inkscape"
   width="300"
   height="200"
   id="svg2"
   version="1.1"
   inkscape:version="0.48.2 r9819"
   sodipodi:docname="l3afpadiconTANGNOME.svg">
  <defs
     id="defs4">
    <linearGradient
       id="linearGradient3799">
      <stop
         style="stop-color:#3e772c;stop-opacity:1;"
         offset="0"
         id="stop3801" />
      <stop
         style="stop-color:#14260e;stop-opacity:1;"
         offset="1"
         id="stop3803" />
    </linearGradient>
    <linearGradient
       id="linearGradient3791">
      <stop
         style="stop-color:#71ce57;stop-opacity:1;"
         offset="0"
         id="stop3793" />
      <stop
         style="stop-color:#42952b;stop-opacity:1;"
         offset="1"
         id="stop3795" />
    </linearGradient>
    <radialGradient
       inkscape:collect="always"
       xlink:href="#linearGradient3791-8"
       id="radialGradient3797-5"
       cx="227.59972"
       cy="198.53191"
       fx="227.59972"
       fy="198.53189"
       r="88.868469"
       gradientTransform="matrix(1.2311604,2.1324324,-1.3049738,0.75342697,146.92292,-521.0423)"
       gradientUnits="userSpaceOnUse" />
    <linearGradient
       id="linearGradient3791-8">
      <stop
         style="stop-color:#71ce57;stop-opacity:1;"
         offset="0"
         id="stop3793-0" />
      <stop
         style="stop-color:#42952b;stop-opacity:1;"
         offset="1"
         id="stop3795-2" />
    </linearGradient>
    <radialGradient
       inkscape:collect="always"
       xlink:href="#linearGradient3791-8"
       id="radialGradient3935"
       gradientUnits="userSpaceOnUse"
       gradientTransform="matrix(1.2311604,2.1324324,-1.3049738,0.75342697,979.3746,13.521745)"
       cx="227.59972"
       cy="198.53191"
       fx="227.59972"
       fy="198.53189"
       r="88.868469" />
    <radialGradient
       inkscape:collect="always"
       xlink:href="#linearGradient3791-8-9"
       id="radialGradient3935-8"
       gradientUnits="userSpaceOnUse"
       gradientTransform="matrix(1.2311604,2.1324324,-1.3049738,0.75342697,486.92292,-521.04234)"
       cx="227.59972"
       cy="198.53191"
       fx="227.59972"
       fy="198.53189"
       r="88.868469" />
    <linearGradient
       id="linearGradient3791-8-9">
      <stop
         style="stop-color:#8ae234;stop-opacity:1;"
         offset="0"
         id="stop3793-0-5" />
      <stop
         style="stop-color:#428305;stop-opacity:1;"
         offset="1"
         id="stop3795-2-6" />
    </linearGradient>
    <radialGradient
       r="88.868469"
       fy="173.08922"
       fx="222.91791"
       cy="173.08923"
       cx="222.91791"
       gradientTransform="matrix(-1.0013797,1.7344405,1.0614167,0.61280924,172.06123,328.42627)"
       gradientUnits="userSpaceOnUse"
       id="radialGradient4021-3"
       xlink:href="#linearGradient3791-8-9-8"
       inkscape:collect="always" />
    <linearGradient
       id="linearGradient3791-8-9-8">
      <stop
         style="stop-color:#8ae234;stop-opacity:1;"
         offset="0"
         id="stop3793-0-5-6" />
      <stop
         style="stop-color:#428305;stop-opacity:1;"
         offset="1"
         id="stop3795-2-6-0" />
    </linearGradient>
    <radialGradient
       r="88.868469"
       fy="173.08922"
       fx="222.91791"
       cy="173.08923"
       cx="222.91791"
       gradientTransform="matrix(-1.2311604,2.1324324,1.3049738,0.75342697,177.31494,-536.69672)"
       gradientUnits="userSpaceOnUse"
       id="radialGradient3879"
       xlink:href="#linearGradient3791-8-9-8"
       inkscape:collect="always" />
    <radialGradient
       r="88.868469"
       fy="173.08922"
       fx="222.91791"
       cy="173.08923"
       cx="222.91791"
       gradientTransform="matrix(-1.2311604,2.1324324,1.3049738,0.75342697,408.57262,288.1763)"
       gradientUnits="userSpaceOnUse"
       id="radialGradient4021"
       xlink:href="#linearGradient3791-8-9-6"
       inkscape:collect="always" />
    <linearGradient
       id="linearGradient3791-8-9-6">
      <stop
         style="stop-color:#ffffff;stop-opacity:0;"
         offset="0"
         id="stop3793-0-5-1" />
      <stop
         style="stop-color:#b9fa7c;stop-opacity:1;"
         offset="1"
         id="stop3795-2-6-8" />
    </linearGradient>
    <radialGradient
       r="88.868469"
       fy="173.08643"
       fx="222.91791"
       cy="173.08644"
       cx="222.91791"
       gradientTransform="matrix(0.95271214,1.1693951,0.9501934,-0.77412739,-244.2895,694.44809)"
       gradientUnits="userSpaceOnUse"
       id="radialGradient3879-7"
       xlink:href="#linearGradient3791-8-9-6"
       inkscape:collect="always" />
    <radialGradient
       r="88.868469"
       fy="173.08643"
       fx="222.91791"
       cy="173.08644"
       cx="222.91791"
       gradientTransform="matrix(1.1713254,1.4377293,1.1682287,-0.95176186,-103.31567,738.187)"
       gradientUnits="userSpaceOnUse"
       id="radialGradient3879-7-2"
       xlink:href="#linearGradient3791-8-9-6-4"
       inkscape:collect="always" />
    <linearGradient
       id="linearGradient3791-8-9-6-4">
      <stop
         style="stop-color:#ffffff;stop-opacity:0;"
         offset="0"
         id="stop3793-0-5-1-0" />
      <stop
         style="stop-color:#b9fa7c;stop-opacity:1;"
         offset="1"
         id="stop3795-2-6-8-0" />
    </linearGradient>
    <radialGradient
       r="88.868469"
       fy="173.08643"
       fx="222.91791"
       cy="173.08644"
       cx="222.91791"
       gradientTransform="matrix(0.17553749,0.27617873,0.1750734,-0.18282745,181.86928,869.20983)"
       gradientUnits="userSpaceOnUse"
       id="radialGradient3879-7-5"
       xlink:href="#linearGradient3791-8-9-6-1"
       inkscape:collect="always" />
    <linearGradient
       id="linearGradient3791-8-9-6-1">
      <stop
         style="stop-color:#ffffff;stop-opacity:0;"
         offset="0"
         id="stop3793-0-5-1-3" />
      <stop
         style="stop-color:#b9fa7c;stop-opacity:1;"
         offset="1"
         id="stop3795-2-6-8-7" />
    </linearGradient>
    <radialGradient
       r="88.868469"
       fy="173.08922"
       fx="222.91791"
       cy="173.08923"
       cx="222.91791"
       gradientTransform="matrix(-1.2311604,2.1324324,1.3049738,0.75342697,341.57262,185.1763)"
       gradientUnits="userSpaceOnUse"
       id="radialGradient4021-3-8"
       xlink:href="#linearGradient3791-8-9-8-0"
       inkscape:collect="always" />
    <linearGradient
       id="linearGradient3791-8-9-8-0">
      <stop
         style="stop-color:#8ae234;stop-opacity:1;"
         offset="0"
         id="stop3793-0-5-6-9" />
      <stop
         style="stop-color:#428305;stop-opacity:1;"
         offset="1"
         id="stop3795-2-6-0-5" />
    </linearGradient>
    <radialGradient
       r="88.868469"
       fy="156.56033"
       fx="222.70099"
       cy="156.56035"
       cx="222.70099"
       gradientTransform="matrix(-0.22505733,0.3925075,0.20139048,0.19328491,266.61388,778.17733)"
       gradientUnits="userSpaceOnUse"
       id="radialGradient3990"
       xlink:href="#linearGradient3791-8-9-8-0"
       inkscape:collect="always" />
    <linearGradient
       id="linearGradient3791-8-9-6-1-7">
      <stop
         style="stop-color:#ffffff;stop-opacity:0;"
         offset="0"
         id="stop3793-0-5-1-3-4" />
      <stop
         style="stop-color:#b9fa7c;stop-opacity:1;"
         offset="1"
         id="stop3795-2-6-8-7-3" />
    </linearGradient>
    <radialGradient
       r="88.868469"
       fy="173.08922"
       fx="222.91791"
       cy="173.08923"
       cx="222.91791"
       gradientTransform="matrix(-0.18895334,0.32727678,0.20028191,0.11563282,27.342059,934.21713)"
       gradientUnits="userSpaceOnUse"
       id="radialGradient3990-0"
       xlink:href="#linearGradient3791-8-9-8-0-9"
       inkscape:collect="always" />
    <linearGradient
       id="linearGradient3791-8-9-8-0-9">
      <stop
         style="stop-color:#8ae234;stop-opacity:1;"
         offset="0"
         id="stop3793-0-5-6-9-6" />
      <stop
         style="stop-color:#428305;stop-opacity:1;"
         offset="1"
         id="stop3795-2-6-0-5-6" />
    </linearGradient>
    <radialGradient
       r="88.868469"
       fy="173.08922"
       fx="222.91791"
       cy="173.08923"
       cx="222.91791"
       gradientTransform="matrix(-1.0013797,1.7344405,1.0614167,0.61280924,146.06123,359.42627)"
       gradientUnits="userSpaceOnUse"
       id="radialGradient4021-3-2"
       xlink:href="#linearGradient3791-8-9-8-1"
       inkscape:collect="always" />
    <linearGradient
       id="linearGradient3791-8-9-8-1">
      <stop
         style="stop-color:#8ae234;stop-opacity:1;"
         offset="0"
         id="stop3793-0-5-6-7" />
      <stop
         style="stop-color:#428305;stop-opacity:1;"
         offset="1"
         id="stop3795-2-6-0-1" />
    </linearGradient>
    <radialGradient
       r="88.868469"
       fy="156.56033"
       fx="222.70099"
       cy="156.56035"
       cx="222.70099"
       gradientTransform="matrix(-0.22505733,0.3925075,0.20139048,0.19328491,35.149413,902.3489)"
       gradientUnits="userSpaceOnUse"
       id="radialGradient3990-1"
       xlink:href="#linearGradient3791-8-9-8-0-5"
       inkscape:collect="always" />
    <linearGradient
       id="linearGradient3791-8-9-8-0-5">
      <stop
         style="stop-color:#8ae234;stop-opacity:1;"
         offset="0"
         id="stop3793-0-5-6-9-2" />
      <stop
         style="stop-color:#428305;stop-opacity:1;"
         offset="1"
         id="stop3795-2-6-0-5-9" />
    </linearGradient>
    <linearGradient
       id="linearGradient3791-8-9-6-47">
      <stop
         style="stop-color:#ffffff;stop-opacity:0;"
         offset="0"
         id="stop3793-0-5-1-6" />
      <stop
         style="stop-color:#b9fa7c;stop-opacity:1;"
         offset="1"
         id="stop3795-2-6-8-3" />
    </linearGradient>
    <radialGradient
       r="88.868469"
       fy="173.08922"
       fx="222.91791"
       cy="173.08923"
       cx="222.91791"
       gradientTransform="matrix(-1.0013797,1.7344405,1.0614167,0.61280924,146.06123,359.42627)"
       gradientUnits="userSpaceOnUse"
       id="radialGradient4021-3-3"
       xlink:href="#linearGradient3791-8-9-8-8"
       inkscape:collect="always" />
    <linearGradient
       id="linearGradient3791-8-9-8-8">
      <stop
         style="stop-color:#8ae234;stop-opacity:1;"
         offset="0"
         id="stop3793-0-5-6-0" />
      <stop
         style="stop-color:#428305;stop-opacity:1;"
         offset="1"
         id="stop3795-2-6-0-3" />
    </linearGradient>
    <linearGradient
       id="linearGradient3791-8-9-6-47-7">
      <stop
         style="stop-color:#ffffff;stop-opacity:0;"
         offset="0"
         id="stop3793-0-5-1-6-3" />
      <stop
         style="stop-color:#b9fa7c;stop-opacity:1;"
         offset="1"
         id="stop3795-2-6-8-3-9" />
    </linearGradient>
    <radialGradient
       r="88.868469"
       fy="173.08922"
       fx="222.91791"
       cy="173.08923"
       cx="222.91791"
       gradientTransform="matrix(-0.49495532,0.85728776,0.52463002,0.30289529,240.64723,770.10981)"
       gradientUnits="userSpaceOnUse"
       id="radialGradient4401-9"
       xlink:href="#linearGradient3791-8-9-8-8-0"
       inkscape:collect="always" />
    <linearGradient
       id="linearGradient3791-8-9-8-8-0">
      <stop
         style="stop-color:#8ae234;stop-opacity:1;"
         offset="0"
         id="stop3793-0-5-6-0-6" />
      <stop
         style="stop-color:#428305;stop-opacity:1;"
         offset="1"
         id="stop3795-2-6-0-3-0" />
    </linearGradient>
  </defs>
  <sodipodi:namedview
     id="base"
     pagecolor="#ffffff"
     bordercolor="#666666"
     borderopacity="1.0"
     inkscape:pageopacity="0.0"
     inkscape:pageshadow="2"
     inkscape:zoom="0.50000001"
     inkscape:cx="459.49589"
     inkscape:cy="360.34328"
     inkscape:document-units="px"
     inkscape:current-layer="layer1"
     showgrid="false"
     inkscape:window-width="1193"
     inkscape:window-height="867"
     inkscape:window-x="49"
     inkscape:window-y="112"
     inkscape:window-maximized="0" />
  <metadata
     id="metadata7">
    <rdf:RDF>
      <cc:Work
         rdf:about="">
        <dc:format>image/svg+xml</dc:format>
        <dc:type
           rdf:resource="http://purl.org/dc/dcmitype/StillImage" />
        <dc:title />
      </cc:Work>
    </rdf:RDF>
  </metadata>
  <g
     inkscape:label="Layer 1"
     inkscape:groupmode="layer"
     id="layer1"
     transform="translate(0,-852.3614)">
    <g
       id="g4625"
       transform="translate(-7.1715729,101.15076)">
      <path
         sodipodi:nodetypes="ssccsccsccss"
         inkscape:connector-curvature="0"
         id="path2985-0-0"
         d="m 270.16552,767.7537 c -2.03225,-0.003 -10.15213,9.20041 -12.78135,10.71841 -5.80565,3.35189 -21.12321,9.49074 -26.99799,11.06878 -2.44251,-0.29074 -115.52539,1.57804 -115.52539,1.57804 0,0 -24.080304,-3.47023 -42.111216,27.76021 C 54.718678,850.10958 30.638358,921.13 30.638358,921.13 l 147.052912,0.8073 c 0,0 24.26916,0.7673 38.92709,-24.62098 14.65792,-25.38827 35.56357,-90.00767 35.56357,-90.00767 0,0 0.9265,-4.78333 -3.18413,-9.14876 5.75758,-2.24195 15.41828,-10.34772 22.82706,-12.3329 12.2945,-3.2943 7.14712,-18.06234 -1.65934,-18.07329 z"
         style="color:#000000;fill:url(#radialGradient4021-3);fill-opacity:1;fill-rule:nonzero;stroke:none;stroke-width:4;marker:none;visibility:visible;display:inline;overflow:visible;enable-background:accumulate" />
      <path
         sodipodi:nodetypes="scccss"
         inkscape:connector-curvature="0"
         id="path3779-5-9"
         d="m 232.57431,810.17691 c -14.217,24.62455 -40.23327,86.13222 -40.23327,86.13222 L 177.32988,906.8053 175.571,886.54748 c 0,0 25.6091,-58.29774 41.28324,-85.44614 3.0253,-5.23997 18.74536,3.83561 15.72007,9.07557 z"
         style="fill:#000000;fill-opacity:1;stroke:none" />
      <g
         id="flowRoot3781-8-3"
         style="font-size:32px;font-style:normal;font-weight:normal;line-height:125%;letter-spacing:0px;word-spacing:0px;fill:#000000;fill-opacity:1;stroke:none;font-family:Sans"
         transform="matrix(1.0703828,0,0,1.0703828,-108.20099,664.07457)">
        <path
           inkscape:connector-curvature="0"
           id="path4089"
           style="font-size:56px;font-variant:normal;font-weight:bold;font-stretch:normal;font-family:Cantarell;-inkscape-font-specification:Cantarell Bold"
           d="m 226.01,188.67979 -0.896,0.448 2.352,5.712 1.064,-0.448 c 4.088,-1.79199 7.392,-2.184 9.352,-2.184 4.536,0 7.448,1.73601 7.448,4.088 0,1.96 -2.18401,4.984 -11.088,4.984 l -1.288,0 0,6.216 1.288,0 c 10.86399,0 13.048,3.69601 13.048,6.104 0,3.696 -4.87201,6.16 -10.584,6.16 -2.016,0 -4.592,-0.336 -9.352,-1.568 l -1.008,-0.224 -2.016,5.768 1.008,0.392 c 3.696,1.512 7.56,2.184 11.312,2.184 10.69599,0 17.64,-5.432 17.64,-13.552 0,-3.75199 -1.68,-7.112 -5.992,-9.016 2.688,-1.79199 4.312,-4.76 4.312,-8.176 0,-5.71199 -5.65601,-9.8 -14.056,-9.8 -5.31999,0 -9.968,1.624 -12.544,2.912" />
      </g>
      <path
         inkscape:connector-curvature="0"
         id="path3941-0"
         d="m 124.55536,901.70144 -17.43516,0"
         style="fill:#295103;fill-opacity:1;stroke:#2b5503;stroke-width:2.44008756;stroke-linecap:butt;stroke-linejoin:miter;stroke-miterlimit:4;stroke-opacity:1;stroke-dasharray:none" />
      <path
         inkscape:connector-curvature="0"
         id="path3943-4"
         d="m 97.356498,901.70144 -9.763693,0"
         style="fill:#295103;fill-opacity:1;stroke:#2b5503;stroke-width:2.44008756;stroke-linecap:butt;stroke-linejoin:miter;stroke-miterlimit:4;stroke-opacity:1;stroke-dasharray:none" />
      <path
         inkscape:connector-curvature="0"
         id="path3945-1"
         d="m 79.921332,901.70144 -36.962558,0"
         style="fill:#295103;fill-opacity:1;stroke:#2b5503;stroke-width:2.44008756;stroke-linecap:butt;stroke-linejoin:miter;stroke-miterlimit:4;stroke-opacity:1;stroke-dasharray:none" />
      <path
         inkscape:connector-curvature="0"
         id="path3947-6"
         d="m 124.55536,883.56719 -19.52738,0"
         style="fill:#295103;fill-opacity:1;stroke:#2b5503;stroke-width:2.44008756;stroke-linecap:butt;stroke-linejoin:miter;stroke-miterlimit:4;stroke-opacity:1;stroke-dasharray:none" />
      <path
         inkscape:connector-curvature="0"
         id="path3949-8"
         d="m 94.566876,883.56719 -35.567748,0"
         style="fill:#295103;fill-opacity:1;stroke:#2b5503;stroke-width:2.44008756;stroke-linecap:butt;stroke-linejoin:miter;stroke-miterlimit:4;stroke-opacity:1;stroke-dasharray:none" />
      <path
         inkscape:connector-curvature="0"
         id="path3959-3"
         d="m 171.97902,851.48815 -46.02884,0"
         style="fill:#295103;fill-opacity:1;stroke:#2b5503;stroke-width:2.44008756;stroke-linecap:butt;stroke-linejoin:miter;stroke-miterlimit:4;stroke-opacity:1;stroke-dasharray:none" />
      <path
         inkscape:connector-curvature="0"
         id="path3961-9"
         d="m 118.2787,851.48815 -32.778116,0"
         style="fill:#295103;fill-opacity:1;stroke:#2b5503;stroke-width:2.44008756;stroke-linecap:butt;stroke-linejoin:miter;stroke-miterlimit:4;stroke-opacity:1;stroke-dasharray:none" />
      <path
         inkscape:connector-curvature="0"
         id="path3963-2"
         d="m 79.223923,851.48815 -13.948134,0"
         style="fill:#295103;fill-opacity:1;stroke:#2b5503;stroke-width:2.44008756;stroke-linecap:butt;stroke-linejoin:miter;stroke-miterlimit:4;stroke-opacity:1;stroke-dasharray:none" />
      <path
         inkscape:connector-curvature="0"
         id="path3965-6"
         d="m 184.53235,833.35557 -26.50146,0"
         style="fill:#295103;fill-opacity:1;stroke:#2b5503;stroke-width:2.44008756;stroke-linecap:butt;stroke-linejoin:miter;stroke-miterlimit:4;stroke-opacity:1;stroke-dasharray:none" />
      <path
         inkscape:connector-curvature="0"
         id="path3967-7"
         d="m 148.4991,833.35557 -45.33144,0"
         style="fill:#295103;fill-opacity:1;stroke:#2b5503;stroke-width:2.44008756;stroke-linecap:butt;stroke-linejoin:miter;stroke-miterlimit:4;stroke-opacity:1;stroke-dasharray:none" />
      <path
         inkscape:connector-curvature="0"
         id="path3969-0"
         d="m 93.403971,833.35557 -17.435165,0"
         style="fill:#295103;fill-opacity:1;stroke:#2b5503;stroke-width:2.44008756;stroke-linecap:butt;stroke-linejoin:miter;stroke-miterlimit:4;stroke-opacity:1;stroke-dasharray:none" />
      <path
         inkscape:connector-curvature="0"
         id="path3971-8"
         d="m 192.20382,812.31741 -36.26515,0"
         style="fill:#295103;fill-opacity:1;stroke:#2b5503;stroke-width:2.44008756;stroke-linecap:butt;stroke-linejoin:miter;stroke-miterlimit:4;stroke-opacity:1;stroke-dasharray:none" />
      <path
         inkscape:connector-curvature="0"
         id="path3973-4"
         d="m 147.10429,812.31741 -15.34295,0"
         style="fill:#295103;fill-opacity:1;stroke:#2b5503;stroke-width:2.44008756;stroke-linecap:butt;stroke-linejoin:miter;stroke-miterlimit:4;stroke-opacity:1;stroke-dasharray:none" />
      <path
         inkscape:connector-curvature="0"
         id="path3979-1"
         d="m 124.08987,812.31741 -34.172931,0"
         style="fill:#295103;fill-opacity:1;stroke:#2b5503;stroke-width:2.44008756;stroke-linecap:butt;stroke-linejoin:miter;stroke-miterlimit:4;stroke-opacity:1;stroke-dasharray:none" />
      <path
         inkscape:connector-curvature="0"
         id="path3981-8"
         d="m 124.77226,866.49034 -30.57474,0"
         style="fill:#295103;fill-opacity:1;stroke:#2b5503;stroke-width:2.44008756;stroke-linecap:butt;stroke-linejoin:miter;stroke-miterlimit:4;stroke-opacity:1;stroke-dasharray:none" />
      <path
         inkscape:connector-curvature="0"
         id="path3983-5"
         d="m 84.827836,866.49034 -22.191351,0"
         style="fill:#295103;fill-opacity:1;stroke:#2b5503;stroke-width:2.44008756;stroke-linecap:butt;stroke-linejoin:miter;stroke-miterlimit:4;stroke-opacity:1;stroke-dasharray:none" />
      <path
         sodipodi:nodetypes="csccsccccscccc"
         inkscape:connector-curvature="0"
         id="path2985-0-0-0"
         d="m 274.86293,771.84911 c 1.37782,4.03527 0.43782,8.10358 -6.6235,9.99565 -7.40878,1.98518 -20.25259,12.05844 -26.01017,14.30038 7.79617,5.0517 4.11932,10.28215 4.11932,10.28215 0,0 -21.10461,61.66694 -35.76253,87.05521 -14.65793,25.3883 -35.68628,21.3762 -35.68628,21.3762 L 35.119926,913.88077 c -0.837039,2.3044 -1.892011,5.48893 -1.892011,5.48893 l 141.572295,0.0205 c 0,0 25.10419,3.3501 39.76212,-22.03823 14.65792,-25.38827 35.45766,-89.37219 35.45766,-89.37219 0,0 3.09611,-4.24129 -4.05874,-10.56073 7.95028,-2.27788 16.21231,-10.08073 24.32422,-12.6179 9.80053,-2.0939 7.19204,-11.20659 4.57746,-12.95204 z"
         style="opacity:0.29343633;fill:url(#radialGradient3879-7);fill-opacity:1;stroke:none" />
      <path
         inkscape:connector-curvature="0"
         id="path2985-0-0-4"
         d="m 270.15625,765.75 c -1.00856,0 -1.50788,0.3527 -2.0625,0.6875 -0.55462,0.3348 -1.10098,0.74104 -1.6875,1.21875 -1.17303,0.95543 -2.46344,2.18163 -3.78125,3.4375 -1.31781,1.25587 -2.64854,2.54552 -3.78125,3.59375 -1.13271,1.04823 -2.18301,1.89753 -2.46875,2.0625 -5.37003,3.10039 -20.79545,9.26643 -26.34375,10.78125 -0.0502,-3.6e-4 -0.0932,10e-4 -0.15625,0 -0.30311,-0.005 -0.70051,-0.0301 -1.1875,-0.0312 -0.97398,-0.002 -2.30244,0.0196 -3.96875,0.0312 -3.33261,0.0233 -7.96317,0.0578 -13.4375,0.125 -10.94866,0.13436 -25.30478,0.34707 -39.59375,0.5625 -28.40526,0.42826 -56.19267,0.90066 -56.53125,0.90625 0,0 -0.3237,0.003 -0.34375,0 -0.49033,-0.0617 -6.59449,-0.78035 -14.9375,2.28125 -8.684156,3.18678 -19.619492,10.4919 -28.84375,26.46875 C 52.729414,849.57478 28.75,920.5 28.75,920.5 l -0.90625,2.625 2.78125,0 147,0.8125 c 0,0 0.0618,-2e-5 0.0625,0 0.1859,0.004 25.56702,0.51034 40.65625,-25.625 7.49048,-12.97385 16.36479,-35.47688 23.4375,-54.84375 7.07271,-19.36687 12.3125,-35.53125 12.3125,-35.53125 l 0.0312,-0.125 0.0312,-0.125 c 0,0 0.54067,-4.3748 -2.25,-8.78125 2.77094,-1.40621 5.74093,-3.30148 8.9375,-5.3125 4.02873,-2.53454 8.24302,-4.97103 11.5,-5.84375 3.46817,-0.92929 5.97716,-2.76399 7.375,-5.09375 1.39784,-2.32976 1.66771,-5.0323 1.15625,-7.5 -1.02292,-4.93541 -5.19804,-9.39935 -10.71875,-9.40625 z m 0.21875,4.03125 c 3.18849,0.13426 5.89935,2.9879 6.5625,6.1875 0.33938,1.63746 0.1634,3.25889 -0.65625,4.625 -0.81965,1.36611 -2.28967,2.59464 -4.96875,3.3125 -4.1518,1.11248 -8.50054,3.73739 -12.59375,6.3125 -4.09321,2.57511 -7.96569,5.09998 -10.4375,6.0625 L 245.5,797.375 l 2.03125,2.15625 c 3.46052,3.675 2.70873,7.24652 2.6875,7.34375 -0.0923,0.28507 -5.20597,16.10156 -12.1875,35.21875 -7.04459,19.28988 -15.98881,41.8044 -23.15625,54.21875 -14.17125,24.54534 -37.125,23.625 -37.125,23.625 l -0.0312,0 -0.0312,0 -144.21885,-0.8125 c 2.519386,-7.34213 24.258099,-70.25211 41,-99.25 8.806654,-15.25355 18.917526,-21.83303 26.78125,-24.71875 7.86372,-2.88572 13.3125,-2.0625 13.3125,-2.0625 l 0.15625,0.0312 0.1875,0 c 0,0 28.26963,-0.47544 56.84375,-0.90625 14.28706,-0.2154 28.65241,-0.42823 39.59375,-0.5625 5.47067,-0.0671 10.08713,-0.10177 13.40625,-0.125 1.65956,-0.0116 2.98665,-0.0335 3.9375,-0.0312 0.47543,10e-4 0.85692,0.0266 1.125,0.0312 0.26808,0.005 0.52343,0.0214 0.34375,0 l 0.375,0.0312 0.375,-0.0937 c 6.28867,-1.68917 21.25964,-7.66516 27.46875,-11.25 1.02887,-0.59403 1.99476,-1.48997 3.1875,-2.59375 1.19274,-1.10378 2.51766,-2.39102 3.8125,-3.625 1.29484,-1.23398 2.55932,-2.40167 3.5625,-3.21875 0.50159,-0.40854 0.9613,-0.73198 1.25,-0.90625 0.0982,-0.0593 0.13344,-0.0777 0.1875,-0.0937 z"
         style="font-size:medium;font-style:normal;font-variant:normal;font-weight:normal;font-stretch:normal;text-indent:0;text-align:start;text-decoration:none;line-height:normal;letter-spacing:normal;word-spacing:normal;text-transform:none;direction:ltr;block-progression:tb;writing-mode:lr-tb;text-anchor:start;baseline-shift:baseline;color:#000000;fill:#2b5503;fill-opacity:1;fill-rule:nonzero;stroke:none;stroke-width:4;marker:none;visibility:visible;display:inline;overflow:visible;enable-background:accumulate;font-family:Sans;-inkscape-font-specification:Sans" />
    </g>
    <g
       id="g4603"
       transform="translate(-7.1715729,101.15076)">
      <path
         sodipodi:nodetypes="ssccsccsccss"
         inkscape:connector-curvature="0"
         id="path2985-0-0-2"
         d="m 277.26191,888.16243 c -0.37444,0 -1.69791,1.5686 -2.18234,1.9272 -1.06969,0.7916 -4.66873,1.2056 -5.75116,1.5784 -0.45004,-0.068 -21.28558,0.3727 -21.28558,0.3727 0,0 -4.43681,-0.8196 -7.75902,6.5563 -3.32219,7.3757 -7.759,24.1489 -7.759,24.1489 l 27.09455,0.1905 c 0,0 4.4716,0.1812 7.17232,-5.8147 2.70072,-5.9962 6.5526,-21.2574 6.5526,-21.2574 0,0 0.17071,-1.1296 -0.58668,-2.1608 1.06084,-0.5295 2.84082,-1.0628 4.2059,-1.5316 2.26526,-0.7782 1.92101,-4.0069 0.29841,-4.0095 z"
         style="color:#000000;fill:url(#radialGradient3990);fill-opacity:1;fill-rule:nonzero;stroke:none;stroke-width:1.51475775;marker:none;visibility:visible;display:inline;overflow:visible;enable-background:accumulate" />
      <g
         id="flowRoot3781-8-3-3"
         style="font-size:32px;font-style:normal;font-weight:normal;line-height:125%;letter-spacing:0px;word-spacing:0px;fill:#000000;fill-opacity:1;stroke:none;font-family:Sans"
         transform="matrix(0.19721834,0,0,0.19721834,204.99071,875.42516)">
        <path
           inkscape:connector-curvature="0"
           id="path4089-2"
           style="font-size:56px;font-variant:normal;font-weight:bold;font-stretch:normal;font-family:Cantarell;-inkscape-font-specification:Cantarell Bold"
           d="m 226.01,188.67979 -0.896,0.448 2.352,5.712 1.064,-0.448 c 4.088,-1.79199 7.392,-2.184 9.352,-2.184 4.536,0 7.448,1.73601 7.448,4.088 0,1.96 -2.18401,4.984 -11.088,4.984 l -1.288,0 0,6.216 1.288,0 c 10.86399,0 13.048,3.69601 13.048,6.104 0,3.696 -4.87201,6.16 -10.584,6.16 -2.016,0 -4.592,-0.336 -9.352,-1.568 l -1.008,-0.224 -2.016,5.768 1.008,0.392 c 3.696,1.512 7.56,2.184 11.312,2.184 10.69599,0 17.64,-5.432 17.64,-13.552 0,-3.75199 -1.68,-7.112 -5.992,-9.016 2.688,-1.79199 4.312,-4.76 4.312,-8.176 0,-5.71199 -5.65601,-9.8 -14.056,-9.8 -5.31999,0 -9.968,1.624 -12.544,2.912" />
      </g>
      <path
         inkscape:connector-curvature="0"
         id="path3943-4-3"
         d="m 248.70711,918.08043 -2.20176,0"
         style="fill:#295103;fill-opacity:1;stroke:#2b5503;stroke-width:1.29206395;stroke-linecap:butt;stroke-linejoin:miter;stroke-miterlimit:4;stroke-opacity:1;stroke-dasharray:none" />
      <path
         inkscape:connector-curvature="0"
         id="path3945-1-3"
         d="m 244.77539,918.08043 -8.33526,0"
         style="fill:#295103;fill-opacity:1;stroke:#2b5503;stroke-width:1.29206395;stroke-linecap:butt;stroke-linejoin:miter;stroke-miterlimit:4;stroke-opacity:1;stroke-dasharray:none" />
      <path
         inkscape:connector-curvature="0"
         id="path3949-8-3"
         d="m 248.07804,913.30063 -8.02073,0"
         style="fill:#295103;fill-opacity:1;stroke:#2b5503;stroke-width:1.29206395;stroke-linecap:butt;stroke-linejoin:miter;stroke-miterlimit:4;stroke-opacity:1;stroke-dasharray:none" />
      <path
         inkscape:connector-curvature="0"
         id="path3959-3-8"
         d="m 265.53489,904.84483 -10.37975,0"
         style="fill:#295103;fill-opacity:1;stroke:#2b5503;stroke-width:1.29206395;stroke-linecap:butt;stroke-linejoin:miter;stroke-miterlimit:4;stroke-opacity:1;stroke-dasharray:none" />
      <path
         inkscape:connector-curvature="0"
         id="path3961-9-6"
         d="m 253.42517,904.84483 -7.39164,0"
         style="fill:#295103;fill-opacity:1;stroke:#2b5503;stroke-width:1.29206395;stroke-linecap:butt;stroke-linejoin:miter;stroke-miterlimit:4;stroke-opacity:1;stroke-dasharray:none" />
      <path
         inkscape:connector-curvature="0"
         id="path3963-2-1"
         d="m 244.61812,904.84483 -3.14538,0"
         style="fill:#295103;fill-opacity:1;stroke:#2b5503;stroke-width:1.29206395;stroke-linecap:butt;stroke-linejoin:miter;stroke-miterlimit:4;stroke-opacity:1;stroke-dasharray:none" />
      <path
         inkscape:connector-curvature="0"
         id="path3965-6-6"
         d="m 268.36572,900.06553 -5.97622,0"
         style="fill:#295103;fill-opacity:1;stroke:#2b5503;stroke-width:1.29206395;stroke-linecap:butt;stroke-linejoin:miter;stroke-miterlimit:4;stroke-opacity:1;stroke-dasharray:none" />
      <path
         inkscape:connector-curvature="0"
         id="path3967-7-0"
         d="m 260.24004,900.06553 -10.22247,0"
         style="fill:#295103;fill-opacity:1;stroke:#2b5503;stroke-width:1.29206395;stroke-linecap:butt;stroke-linejoin:miter;stroke-miterlimit:4;stroke-opacity:1;stroke-dasharray:none" />
      <path
         inkscape:connector-curvature="0"
         id="path3969-0-9"
         d="m 247.81579,900.06553 -3.93172,0"
         style="fill:#295103;fill-opacity:1;stroke:#2b5503;stroke-width:1.29206395;stroke-linecap:butt;stroke-linejoin:miter;stroke-miterlimit:4;stroke-opacity:1;stroke-dasharray:none" />
      <path
         inkscape:connector-curvature="0"
         id="path3971-8-1"
         d="m 270.09568,894.52023 -8.17798,0"
         style="fill:#295103;fill-opacity:1;stroke:#2b5503;stroke-width:1.29206395;stroke-linecap:butt;stroke-linejoin:miter;stroke-miterlimit:4;stroke-opacity:1;stroke-dasharray:none" />
      <path
         inkscape:connector-curvature="0"
         id="path3973-4-9"
         d="m 259.92551,894.52023 -3.45993,0"
         style="fill:#295103;fill-opacity:1;stroke:#2b5503;stroke-width:1.29206395;stroke-linecap:butt;stroke-linejoin:miter;stroke-miterlimit:4;stroke-opacity:1;stroke-dasharray:none" />
      <path
         inkscape:connector-curvature="0"
         id="path3979-1-1"
         d="m 254.73563,894.52023 -7.70617,0"
         style="fill:#295103;fill-opacity:1;stroke:#2b5503;stroke-width:1.29206395;stroke-linecap:butt;stroke-linejoin:miter;stroke-miterlimit:4;stroke-opacity:1;stroke-dasharray:none" />
      <path
         inkscape:connector-curvature="0"
         id="path3981-8-5"
         d="m 254.88951,908.79933 -6.89476,0"
         style="fill:#295103;fill-opacity:1;stroke:#2b5503;stroke-width:1.29206395;stroke-linecap:butt;stroke-linejoin:miter;stroke-miterlimit:4;stroke-opacity:1;stroke-dasharray:none" />
      <path
         inkscape:connector-curvature="0"
         id="path3983-5-0"
         d="m 245.88183,908.79933 -5.00426,0"
         style="fill:#295103;fill-opacity:1;stroke:#2b5503;stroke-width:1.29206395;stroke-linecap:butt;stroke-linejoin:miter;stroke-miterlimit:4;stroke-opacity:1;stroke-dasharray:none" />
      <path
         sodipodi:nodetypes="csccsccccscccc"
         inkscape:connector-curvature="0"
         id="path2985-0-0-0-9"
         d="m 277.46542,888.85113 c 0.41011,0.8593 -0.41678,2.3572 -1.78606,2.4888 -1.30256,0.1251 -4.26428,1.2958 -5.32512,1.8254 1.43646,1.193 0.97774,2.4908 0.97774,2.4908 0,0 -2.89358,14.5995 -6.058,20.3724 -2.06008,3.7582 -6.31985,4.5013 -6.31985,4.5013 l -25.32684,0.07 c -0.15422,0.5443 -0.46125,1.5973 -0.46125,1.5973 l 25.92064,0.1378 c 0,0 4.56787,0.6288 7.2686,-5.3671 2.70073,-5.9962 6.48702,-20.9007 6.48702,-20.9007 0,0 0.46682,-1.0755 -0.85146,-2.5679 1.46484,-0.5378 3.43599,-0.8738 4.93062,-1.4729 1.80575,-0.4947 1.02569,-2.7628 0.54396,-3.1751 z"
         style="opacity:0.54054051;fill:url(#radialGradient3879-7-5);fill-opacity:1;stroke:none" />
      <path
         inkscape:connector-curvature="0"
         id="path2985-0-0-2-9"
         d="m 277.27697,887.39093 c -0.3112,0 -0.46689,0.1117 -0.59375,0.1875 -0.12686,0.076 -0.23369,0.1588 -0.34375,0.25 -0.22013,0.1823 -0.43077,0.4002 -0.65625,0.625 -0.45096,0.4497 -0.97964,0.9699 -1.0625,1.0312 -0.25911,0.1918 -1.41502,0.568 -2.5625,0.8126 -1.06177,0.2262 -2.04341,0.3786 -2.75,0.5937 -0.0137,3e-4 -0.0427,4e-4 -0.0625,0 -0.0611,0 -0.1273,3e-4 -0.21875,0 -0.18289,-5e-4 -0.44198,0.029 -0.75,0.031 -0.61604,0.01 -1.45956,0.015 -2.46875,0.031 -2.01838,0.032 -4.67947,0.074 -7.3125,0.125 -5.1875,0.1002 -10.16051,0.2155 -10.3125,0.2188 0,0 -0.13632,0 -0.15625,0 -0.21158,-0.028 -1.38132,-0.1696 -2.9375,0.5624 -1.7028,0.801 -3.78274,2.6249 -5.5,6.4376 -3.39508,7.5375 -7.78125,24.25 -7.78125,24.25 l -0.25,0.9374 0.96875,0.031 27.0625,0.1875 c 0,0 0.0304,0 0.0312,0 0.0458,0 1.33075,0.012 2.90625,-0.75 1.60382,-0.7759 3.55293,-2.388 4.96875,-5.5312 2.7876,-6.1891 6.59375,-21.375 6.59375,-21.375 l 0,-0.031 0,-0.031 c 0,0 -0.0294,-0.8574 -0.375,-1.8124 0.99044,-0.4154 2.32013,-0.8761 3.5,-1.2813 1.44817,-0.4975 2.13245,-1.8549 2.125,-3.0313 -0.004,-0.5881 -0.16315,-1.1532 -0.5,-1.625 -0.33685,-0.4717 -0.90572,-0.8426 -1.5625,-0.8437 z m 0.0312,1.5937 c 0.0109,-0.01 0.021,0.01 0.0312,0 0.0842,0.022 0.1692,0.012 0.25,0.125 0.11327,0.1587 0.21675,0.4647 0.21875,0.7813 0.004,0.6332 -0.27666,1.2818 -1.09375,1.5625 -1.34067,0.4604 -3.09933,0.9726 -4.28125,1.5625 l -0.8125,0.4063 0.53125,0.7187 c 0.56904,0.7748 0.4375,1.625 0.4375,1.625 -0.0437,0.1718 -3.90096,15.2608 -6.5,21.0313 -1.28491,2.8526 -2.91158,4.18 -4.21875,4.8124 -1.30717,0.6325 -2.21875,0.5625 -2.21875,0.5626 l -0.0312,0 -26.09375,-0.1876 c 0.42656,-1.5926 4.35742,-16.2243 7.4375,-23.0624 1.60494,-3.5633 3.4351,-5.0543 4.78125,-5.6876 1.34615,-0.6332 2.15625,-0.4375 2.15625,-0.4374 l 0.0937,0 0.0625,0 c 0,0 5.20453,-0.1171 10.46875,-0.2188 2.63211,-0.051 5.29764,-0.093 7.3125,-0.125 1.00743,-0.016 1.82796,-0.026 2.4375,-0.031 0.30477,0 0.57824,-5e-4 0.75,0 0.0859,2e-4 0.14331,0 0.1875,0 l 0.1875,0.031 0.1875,-0.062 c 0.37847,-0.1303 1.59118,-0.3714 2.78125,-0.625 1.19007,-0.2536 2.34567,-0.4626 3.15625,-1.0625 0.40158,-0.2973 0.79325,-0.7632 1.21875,-1.1875 0.21275,-0.2121 0.41403,-0.4083 0.5625,-0.5313 z"
         style="font-size:medium;font-style:normal;font-variant:normal;font-weight:normal;font-stretch:normal;text-indent:0;text-align:start;text-decoration:none;line-height:normal;letter-spacing:normal;word-spacing:normal;text-transform:none;direction:ltr;block-progression:tb;writing-mode:lr-tb;text-anchor:start;baseline-shift:baseline;color:#000000;fill:#2b5503;fill-opacity:1;fill-rule:nonzero;stroke:none;stroke-width:1.51475775;marker:none;visibility:visible;display:inline;overflow:visible;enable-background:accumulate;font-family:Sans;-inkscape-font-specification:Sans" />
      <path
         sodipodi:nodetypes="scccss"
         inkscape:connector-curvature="0"
         id="path3779-5-9-1"
         d="m 278.05742,899.37393 c -5.32611,5.2069 -16.23467,18.8834 -16.23467,18.8834 l -4.52817,1.5871 0.98778,-5.2344 c 0,0 10.57903,-12.8956 16.45107,-18.6363 1.13338,-1.108 4.4574,2.292 3.32399,3.4002 z"
         style="fill:#000000;fill-opacity:1;stroke:none" />
    </g>
  </g>
</svg>
