/* XPM */
static char *l3afpad[] = {
/* columns rows colors chars-per-pixel */
"32 32 70 1 ",
"  c #010100",
". c #060B01",
"X c #080E02",
"o c #0B1402",
"O c #0D1A02",
"+ c #111F04",
"@ c #172806",
"# c #1A2E05",
"$ c #1D3406",
"% c #1C3208",
"& c #243F0B",
"* c #234106",
"= c #294E07",
"- c #264509",
"; c #2A4B0A",
": c #2D520A",
"> c #315F05",
", c #335C0B",
"< c #355B10",
"1 c #366707",
"2 c #356804",
"3 c #356309",
"4 c #39660F",
"5 c #3B6C0C",
"6 c #3E7707",
"7 c #3E740A",
"8 c #3A6312",
"9 c #3F6A14",
"0 c #3E7010",
"q c #40750E",
"w c #427C0A",
"e c #417512",
"r c #467C13",
"t c #45820B",
"y c #48850E",
"u c #4B8D0D",
"i c #4D920D",
"p c #4B8514",
"a c #4E8B14",
"s c #4E8818",
"d c #508E16",
"f c #528C1B",
"g c #529313",
"h c #559A14",
"j c #599E16",
"k c #56911D",
"l c #599D18",
"z c #5BA316",
"x c #5EA519",
"c c #5FA818",
"v c #60A71A",
"b c #62AC1B",
"n c #66B11D",
"m c #69B51F",
"M c #6AB81F",
"N c #60A320",
"B c #67B220",
"V c #6AB521",
"C c #6DBB22",
"Z c #70BD26",
"A c #73C225",
"S c #76C827",
"D c #76C728",
"F c #77C828",
"G c #79CC2A",
"H c #7ED22C",
"J c #83D92F",
"K c #86DD30",
"L c #88E033",
"P c None",
/* pixels */
"PPPPPPPPPPPPPPPPPPPPPPPPPPPPPPPP",
"PPPPPPPPPPPPPPPPPPPPPPPPPPPPPPPP",
"PPPPPPPPPPPPPPPPPPPPPPPPPPPPPPPP",
"PPPPPPPPPPPPPPPPPPPPPPPPPPPPPPPP",
"PPPPPPPPPPPPPPPPPPPPPPPPPPPPPP>P",
"PPPPPPPPPPPPPPPPPPPPPPPPPPPPP2w5",
"PPPPPPPPPPPPPPPPPPPPPPPPPPP26yy1",
"PPPPPPPPP5ppaddsddaapyyyywtup0PP",
"PPPPPPPPgBAFDJGGGFAMmnbg3yiu3PPP",
"PPPPPPPhVCZAJGDJSCMnbnc- $uaPPPP",
"PPPPPPgMnBVZJDZGZnbccbpX =iaPPPP",
"PPPPPqnZAFHJKLKJGSAMmc- OtgePPPP",
"PPPPPhvxCAVCZZZFCbxxnu. :idPPPPP",
"PPPPqbmmADDGGGFGACnnb- OtgpPPPPP",
"PPPPacnVBCZFDZZVmbnndo =igePPPPP",
"PPP5zxnmBVCAZCVBncnb; owidPPPPPP",
"PPPyxzxVCBVVAN98kmbgo *iirPPPPPP",
"PPPhcxbCCBVVZs9<#zb, .7if5PPPPPP",
"PP6zxxcbmCmnCCs&#ch+ $uupPPPPPPP",
"PPyzjjzxnMvvmMa:@dq  3id0PPPPPPP",
"P1gzzcbnnmnnBlhs@pq #ygpPPPPPPPP",
"P7uuggjcjbzhc4%%>hw=tis5PPPPPPPP",
"PazcNnbBBBnnbNzlzjhgga0PPPPPPPPP",
">pfffkkkkkkkkkffssspqPPPPPPPPPPP",
"PPPPPPPPPPPPPPPPPPPPPPPPPPPPPPPP",
"PPPPPPPPPPPPPPPPPPPPPPPPPPPPPPPP",
"PPPPPPPPPPPPPPPPPPPPPPPPPPPPPPPP",
"PPPPPPPPPPPPPPPPPPPPPPPPPPPPPPPP",
"PPPPPPPPPPPPPPPPPPPPPPPPPPPPPPPP",
"PPPPPPPPPPPPPPPPPPPPPPPPPPPPPPPP",
"PPPPPPPPPPPPPPPPPPPPPPPPPPPPPPPP",
"PPPPPPPPPPPPPPPPPPPPPPPPPPPPPPPP"
};
