/* XPM */
static char *l3afpad[] = {
/* columns rows colors chars-per-pixel */
"32 32 142 2 ",
"   c #5D8404",
".  c #5E8903",
"X  c #648C04",
"o  c #698F03",
"O  c #678E0E",
"+  c #6C9403",
"@  c #6F9903",
"#  c #719603",
"$  c #739B03",
"%  c #7A9E03",
"&  c #7B9F0A",
"*  c #7B9D17",
"=  c #77A203",
"-  c #7DA204",
";  c #82A505",
":  c #85A905",
">  c #8AAD06",
",  c #82A40B",
"<  c #89A709",
"1  c #86A909",
"2  c #8AAD0A",
"3  c #8CB106",
"4  c #8CB009",
"5  c #90B207",
"6  c #92B40C",
"7  c #97BA0B",
"8  c #9ABC0D",
"9  c #85AB14",
"0  c #8AAD13",
"q  c #84A218",
"w  c #8EB111",
"e  c #8CB11A",
"r  c #94B613",
"t  c #95B811",
"y  c #9CBD14",
"u  c #95B51B",
"i  c #9BBC1B",
"p  c #A0BF11",
"a  c #8CAE27",
"s  c #90AB28",
"d  c #91B020",
"f  c #9DBC21",
"g  c #98B62B",
"h  c #9BB92B",
"j  c #9CB73B",
"k  c #A1BC3B",
"l  c #9EC016",
"z  c #9FC01F",
"x  c #A1C10D",
"c  c #A3C413",
"v  c #A2C21C",
"b  c #A8C71A",
"n  c #ABCA1D",
"m  c #A2C123",
"M  c #A8C721",
"N  c #A7C824",
"B  c #ADCC22",
"V  c #A6C52C",
"C  c #A8C72D",
"Z  c #ABCC2A",
"A  c #B0D025",
"S  c #A8C730",
"D  c #ADCB32",
"F  c #A8C339",
"G  c #AFCC3D",
"H  c #B3CE3F",
"J  c #B0D036",
"K  c #B3D23C",
"L  c #B8D438",
"P  c #8CAE4A",
"I  c #94AF40",
"U  c #96B156",
"Y  c #9DBB51",
"T  c #A2BA4B",
"R  c #A4BD55",
"E  c #A7C143",
"W  c #A8C541",
"Q  c #ACC843",
"!  c #B3CD41",
"~  c #B3CB4C",
"^  c #B5D342",
"/  c #B8D24B",
"(  c #ACC55A",
")  c #B8CE59",
"_  c #BED851",
"`  c #BED45A",
"'  c #A6C066",
"]  c #B8CE64",
"[  c #B7CE6E",
"{  c #B8CC6A",
"}  c #BCD06F",
"|  c #B9CD7C",
" . c #BAD075",
".. c #BED17B",
"X. c #C0D561",
"o. c #C5DB66",
"O. c #C1D76B",
"+. c #C5DB6A",
"@. c #C2D573",
"#. c #C2D579",
"$. c #C7DA7D",
"%. c #C9DC7B",
"&. c #B8CA80",
"*. c #B6CA8E",
"=. c #BFCF9A",
"-. c #C4D582",
";. c #CCDC85",
":. c #C5D58F",
">. c #CCDB8D",
",. c #CCDB96",
"<. c #C1D09D",
"1. c #CBD79C",
"2. c #D0DD93",
"3. c #D3DF9D",
"4. c #D3E291",
"5. c #D4E299",
"6. c #D9E79B",
"7. c #C7D7A6",
"8. c #C6D3AA",
"9. c #CEDBAF",
"0. c #CBD6B3",
"q. c #CDD8B4",
"w. c #D4DEB6",
"e. c #DAE8A1",
"r. c #D8E3AA",
"t. c #DBE4BB",
"y. c #DFE8BC",
"u. c #E0ECB4",
"i. c #E2EBBB",
"p. c #DAE2C9",
"a. c #E3EAC6",
"s. c #E4ECCC",
"d. c #E9F0CA",
"f. c #EAF0D0",
"g. c #EDF2DB",
"h. c #EAEFE0",
"j. c #EDF2E3",
"k. c #EFF2E8",
"l. c #F6F8EC",
"z. c #FCFCF7",
"x. c #FEFEFD",
"c. c None",
/* pixels */
"c.c.c.c.c.c.c.c.c.c.c.c.c.c.c.c.c.c.c.c.c.c.c.c.c.c.c.c.c.c.c.c.",
"c.c.c.c.c.c.c.c.c.c.c.c.c.c.c.c.c.c.c.c.c.c.c.c.c.c.c.c.c.c.c.c.",
"c.c.c.c.c.c.c.c.c.c.c.c.c.c.c.c.c.c.c.c.c.c.c.c.c.c.c.c.c.c.c.c.",
"c.c.c.c.c.c.c.c.c.c.c.c.c.c.c.c.c.c.c.c.c.c.c.c.c.c.c.c.c.c.c.c.",
"c.c.c.c.c.c.c.c.c.c.c.c.c.c.c.c.c.c.c.c.c.c.c.c.c.=.w.c.c.c.c.c.",
"c.c.c.c.c.c.c.c.c.c.} { -.r.g.l.c.c.c.c.c.c.c.c.c.<.c.c.c.c.c.c.",
"c.c.c.c.c.c.c.c.c.( r 5 8 m k ` 5.i.c.c.c.c.x.j.9.j.c.c.c.c.c.c.",
"c.c.c.c.c.c.c.c.T d r r r 7 5 7 y ! c.c.c.c.h.q.j.x.c.c.c.c.c.c.",
"c.c.c.c.c.c.c.I & < u i f y y p c ! c.c.c.p.0.k.x.c.c.c.c.c.c.c.",
"c.c.c.c.c.c.c.q % , u m V V f y z ~ c.c.8.&.;.e.u.c.c.c.c.c.c.c.",
"c.c.c.c.c.t.j - - % , w f S D C z Q s.8.| H J H V 2.c.c.c.c.c.c.",
"c.c.c.c.c.] > : - ; : ; > i V D V a U R G D G N v ` c.c.c.c.c.c.",
"c.c.c.c.>.f 5 > ; - % ; ; ; , q 9 O   1 i V D J J J +.c.c.c.c.c.",
"c.c.c.c.@.7 5 ; - # # o o o # % $ X # w y m D ^ ^ Z X.c.c.c.c.c.",
"c.c.c.c.~ 7 < % # # # # % % % % X # , 2 y v N J K L / c.c.c.c.c.",
"c.c.c.c.T h s q < % # - ; % # X X % : 1 t y v N N Z ^ c.c.c.c.c.",
"c.c.c.c.c.c.t.1.T ; - $ $ $ + . + ; : 2 7 y m v i i S c.c.c.c.c.",
"c.c.c.c.c.c.c.c.k - - = - - X $ % , 2 : 6 y i i i i c.c.c.c.c.c.",
"c.c.c.c.c.c.c.y.u ; - - - + X - - : 4 4 6 t l x i F c.c.c.c.c.c.",
"c.c.c.c.c.c.c.a.g ; - - $ X $ - ; 2 t 4 4 7 c 8 m @.c.c.c.c.c.c.",
"c.c.c.c.c.c.c.f.f - $ - $ @ $ = - 2 f w 4 l b x ~ c.c.c.c.c.c.c.",
"c.c.c.c.c.c.c.3.u - - = $ @ @ $ - 4 #...4 l n n ! c.c.c.c.c.c.c.",
"c.c.c.c.c.c.c.@.w = $ $ = @ @ = - 5 $.g.g l n A _ c.c.c.c.c.c.c.",
"c.c.c.c.c.c.c.~ 2 - $ @ = $ $ - 4 l O.c.) c B ^ 4.c.c.c.c.c.c.c.",
"c.c.c.c.c.c.c.~ : = @ @ @ @ = - 6 m %.c.4.A L 6.z.c.c.c.c.c.c.c.",
"c.c.c.c.c.c.c.{ = + @ = $ @ = 3 6 ..c.c.c.+.+.c.c.c.c.c.c.c.c.c.",
"c.c.c.c.c.c.c.Y + $ e e - = 9 W $.a.c.c.c.c.c.c.c.c.c.c.c.c.c.c.",
"c.c.c.c.c.c.c.P ' | :.,.[ (  .d.z.c.c.c.c.c.c.c.c.c.c.c.c.c.c.c.",
"c.c.c.c.c.c.*.7.c.c.c.c.c.c.c.c.c.c.c.c.c.c.c.c.c.c.c.c.c.c.c.c.",
"c.c.c.c.c.c.c.c.c.c.c.c.c.c.c.c.c.c.c.c.c.c.c.c.c.c.c.c.c.c.c.c.",
"c.c.c.c.c.c.c.c.c.c.c.c.c.c.c.c.c.c.c.c.c.c.c.c.c.c.c.c.c.c.c.c.",
"c.c.c.c.c.c.c.c.c.c.c.c.c.c.c.c.c.c.c.c.c.c.c.c.c.c.c.c.c.c.c.c."
};
